<svg xmlns="http://www.w3.org/2000/svg" xmlns:xlink="http://www.w3.org/1999/xlink" xml:space="preserve" version="1.1" style="shape-rendering:geometricPrecision;text-rendering:geometricPrecision;image-rendering:optimizeQuality;" viewBox="0 0 333 416.25" x="0px" y="0px" fill-rule="evenodd" clip-rule="evenodd"><defs><style type="text/css">
   
    .fil0 {fill:black}
   
  </style></defs><g><path class="fil0" d="M118 7l-5 4 10 13c-3,12 -7,24 -10,37 -6,29 -14,57 -1,86 19,40 46,25 49,60 1,18 1,55 -2,71 -6,28 -37,21 -39,34l93 0c-8,-13 -32,-8 -39,-32 -4,-15 -3,-53 -2,-70 2,-28 8,-20 32,-40 33,-28 26,-70 17,-108 -3,-11 -7,-33 -12,-41l-79 0 -12 -14z"/></g><text x="0" y="348" fill="#000000" font-size="5px" font-weight="bold" font-family="'Helvetica Neue', Helvetica, Arial-Unicode, Arial, Sans-serif">Created by damar bintang</text><text x="0" y="353" fill="#000000" font-size="5px" font-weight="bold" font-family="'Helvetica Neue', Helvetica, Arial-Unicode, Arial, Sans-serif">from the Noun Project</text></svg>